<?xml version="1.0" encoding="utf-8"?>
<!-- Generator: Adobe Illustrator 22.0.1, SVG Export Plug-In . SVG Version: 6.00 Build 0)  -->
<svg version="1.1" id="Layer_1" xmlns="http://www.w3.org/2000/svg" xmlns:xlink="http://www.w3.org/1999/xlink" x="0px" y="0px"
	 viewBox="0 0 1817 531" style="enable-background:new 0 0 1817 531;" xml:space="preserve">
<style type="text/css">
	.st0{fill:#352E84;}
</style>
<g>
	<rect x="382.2" y="529" class="st0" width="30.9" height="1.4"/>
</g>
<g>
	<path class="st0" d="M627,40.2L627,40.2c0,17.1-13.9,30.9-30.9,30.9H413.1v106.3c0,6.6-5.3,11.9-11.9,11.9h-19V40.9h19.3v-0.7H627z
		"/>
</g>
<g>
	<path class="st0" d="M413.1,305v194.7c0,0.1,0.1,0.1,0.1,0.1h184.6c16.1,0,29.1,13,29.1,29.1v0c0,0.1-0.1,0.1-0.1,0.1H382.3
		c-0.1,0-0.1-0.1-0.1-0.1V378.2c0-0.1-0.2-0.2-0.2,0c-12,28.9-29.7,55.5-52.5,78.4c-46,46.1-108.9,71.4-174.1,71.4H14.5
		c-7.3,0-13.3-5.9-13.3-13.3V55.2c0-7.3,5.9-13.3,13.3-13.3l141,0c64.5,0,126.9,24.8,172.8,70.2c22.8,22.5,40.5,48.7,52.7,77.3h-8.5
		c-15.2,0-29.3-7.7-37.6-20.4C297,111.1,231.6,72.8,157.4,72.8H32.3c-0.1,0-0.1,0.1-0.1,0.1v423.9c0,0.1,0.1,0.1,0.1,0.1h122.9
		c121,0,218.6-99,214.2-219.9c0-0.8-0.1-1.6-0.1-2.5c-0.7-15,11.2-27.5,26.2-27.5H413c0.1,0,0.1,0.1,0.1,0.1v26.6
		c0,0.1,0.1,0.1,0.1,0.1h182.9c17,0,30.8,13.8,30.8,30.8v0c0,0.1-0.1,0.1-0.1,0.1H413.3C413.2,304.9,413.1,304.9,413.1,305z"/>
	<path class="st0" d="M627,529.1v1.5c0,0.1-0.1,0.1-0.1,0.1H401.6c-0.1,0-0.1-0.1-0.1-0.1v-1.5c0-0.1,0.1-0.1,0.1-0.1h225.2
		C626.9,529,627,529,627,529.1z"/>
</g>
<g>
	<path class="st0" d="M666.7,529c-1.4,0.6-2.9,0.9-4.5,0.9c-2.3,0-4.4-0.3-6.5-0.9H666.7z"/>
	<path class="st0" d="M858,529c-1.7,0.6-3.5,0.9-5.3,0.9h-5.9c-1.8,0-3.6-0.3-5.3-0.9H858z"/>
	<path class="st0" d="M1318.2,39.5h-65.6c10.7-1.5,21.7-2.3,32.8-2.3C1296.5,37.2,1307.5,38,1318.2,39.5z"/>
	<path class="st0" d="M1768.1,401.3c-1.5,21.3-11.2,40.9-28.4,54.5c-20.9,16.2-57.6,23.8-89.7,23.8c-36.6,0-74.8-11.9-100.2-43.4
		c-16.9-22.6-27.4-53.5-31.9-83.7c-0.1-0.4,0-0.8,0.1-1.2c5.9-21.3,9.1-43.8,9.1-67.1c0-11.6-0.8-23.1-2.3-34.3
		c-0.4-2.8,2.9-4.5,4.9-2.6h0c24.7,22.1,50.8,29.8,79.2,39.2c29.9,9.4,53.1,17,72.5,23.8c36.6,11.9,51.6,19.6,65,33.2
		C1762.9,358.7,1770.4,379.1,1768.1,401.3z M1774.1,306.8c-23.9-22.1-50.8-34-78.5-42.6c-35.9-11.1-62.8-18.7-82.2-25.5
		c-30.7-10.2-43.4-17.9-55.3-29.8c-5.4-5.5-9.2-11.4-11.8-17.7c-0.4-1.1-1.5-1.8-2.7-1.8h-44.2c-13.4,0-23,13.1-18.7,25.8
		c7.3,21.6,11.2,44.8,11.2,68.9c0,28-5.3,54.7-15,79.2c-0.4,1-0.8,2.1-1.2,3.1c-31.4,76-104.8,129.4-190.2,129.4
		c-93.8,0-173.2-64.5-198.2-152.5c-0.4-1.3-1.5-2.1-2.8-2.1h-15.2c-24.3,0-44,19.7-44,44V526c0,1.6,1.3,2.9,2.9,2.9h9.6
		c12.3,0,22.2-10,22.2-22.2v-119c0-3.2,4.3-4.1,5.6-1.2c34,76,104.7,131.4,188.7,142.5c0.1,0,0.3,0,0.4,0h61.5c0.1,0,0.3,0,0.4,0
		c70.6-9.3,131.8-49.9,169.7-107.7c1.3-2,4.3-1.7,5.2,0.5c6.5,16.4,15,32.4,26.3,46.7c32.9,40.9,81.5,58.7,133.8,58.7
		c39.6,0,81.5-7.7,112.9-30.6c26.9-19.6,46.3-54.5,49.3-91.1C1816.7,367.2,1804,334,1774.1,306.8z M1578.3,105.1
		c19.4-10.2,43.4-15.3,66.5-14.5c23.9,0,47.1,6,66.5,17.9c26.9,15.7,47.5,44.4,58.2,76.5c0.5,1.5,2.1,2.3,3.6,1.9l37.9-10.4
		c1.6-0.4,2.5-2,2.1-3.6c-11.2-41.8-45-86.2-82.3-107.8c-26.2-15.3-56.8-22.1-84.5-22.1c-28.4-0.9-57.6,3.4-86,17.9
		c-31.4,16.4-57.1,49.1-63,86.7c-0.3,1.8,1.1,3.4,2.9,3.4h40.5c1.3,0,2.5-0.9,2.8-2.2C1548.4,130.4,1561.7,114.5,1578.3,105.1z
		 M1025.1,288.6c0,6.2,5.1,11.3,11.3,11.3h26.9c8.6,0,15.6-7,15.6-15.6v-0.2c0-116.7,92.6-211.7,206.4-211.7
		c64.2,0,121.6,30.2,159.5,77.4c0.6,0.7,1.4,1.1,2.3,1.1l36.3,0c2.3,0,3.7-2.6,2.5-4.6c-37.6-57-97.9-97.1-167.5-106.9
		c-0.1,0-0.3,0-0.4,0l-65.2,0c-0.1,0-0.3,0-0.4,0c-83.2,11.7-153.1,66.8-186.9,142.2c-1.3,2.9-5.6,1.9-5.6-1.2V43.3
		c0-1.6-1.3-2.9-2.9-2.9h-14.4c-10.5,0-20,6.4-24,16.1L856,458.7c-2.2,5.4-9.7,5.4-11.9,0L680.3,56.4c-4-9.7-13.4-16.1-23.9-16.1
		h-13.3c-1.6,0-2.9,1.3-2.9,2.9v465c0,6,2.4,11.4,6.3,15.3c2.4,2.4,5.4,4.2,8.7,5.3c0.3,0.1,0.6,0.1,0.9,0.1l9.9,0
		c0.4,0,0.8-0.1,1.2-0.2c4.6-2.1,7.7-6.7,7.7-12V145.9c0-3.2,4.5-4.1,5.7-1.1l150.8,374.7c1.8,4.4,5.3,7.7,9.5,9.3
		c0.3,0.1,0.7,0.2,1,0.2h15.5c0.4,0,0.7-0.1,1-0.2c4.2-1.6,7.7-4.9,9.5-9.3l151.5-375.4c1.2-3,5.7-2.1,5.7,1.1V288.6z"/>
	<path class="st0" d="M1316.4,529c-10.2,1.3-20.5,2-31,2c-10.5,0-20.8-0.7-31-2H1316.4z"/>
</g>
<g>
	<path class="st0" d="M1475.1,363.8c0.2,0.8,0.3,1.7,0.5,2.5c0.4-1,0.8-2,1.2-3.1L1475.1,363.8z"/>
</g>
<path class="st0" d="M397.9-0.5h225.7v3.8c0,9.8-7.9,17.7-17.7,17.7H380.2v-3.8C380.2,7.5,388.1-0.5,397.9-0.5z"/>
</svg>
